<svg enable-background="new 0 0 24 24" height="512" viewBox="0 0 24 24" width="512" xmlns="http://www.w3.org/2000/svg"><path d="m21.25 0h-18.5c-1.517 0-2.75 1.233-2.75 2.75v18.5c0 1.517 1.233 2.75 2.75 2.75h18.5c1.517 0 2.75-1.233 2.75-2.75v-18.5c0-1.517-1.233-2.75-2.75-2.75z" fill="#eceff1"/><path d="m12 0h-9.25c-1.517 0-2.75 1.233-2.75 2.75v18.5c0 1.517 1.233 2.75 2.75 2.75h9.25z" fill="#cdd0d2"/><g fill="#607d8b"><path d="m7.25 9.5h-1v5.75c0 .414-.336.75-.75.75s-.75-.336-.75-.75v-5.75h-1c-.414 0-.75-.336-.75-.75s.336-.75.75-.75h3.5c.414 0 .75.336.75.75s-.336.75-.75.75z"/><path d="m11.5 8c-1.378 0-2.5 1.121-2.5 2.5v4.75c0 .414.336.75.75.75s.75-.336.75-.75v-1.75h2v1.75c0 .414.336.75.75.75s.75-.336.75-.75v-4.75c0-1.379-1.122-2.5-2.5-2.5zm1 4h-2v-1.5c0-.552.449-1 1-1s1 .448 1 1z"/><path d="m21 10.37c0-1.307-1.063-2.37-2.37-2.37h-1.88c-.414 0-.75.336-.75.75v6.5c0 .414.336.75.75.75h1.88c1.307 0 2.37-1.063 2.37-2.38 0-.628-.25-1.196-.65-1.621.4-.426.65-.996.65-1.629zm-2.37 4.13h-1.13v-1.75h1.13c.48 0 .87.391.87.88 0 .479-.39.87-.87.87zm0-3.25h-1.13v-1.75h1.13c.48 0 .87.391.87.88 0 .479-.39.87-.87.87z"/></g><g fill="#546d79"><path d="m6.25 12h-1.5v3.25c0 .414.336.75.75.75s.75-.336.75-.75z"/><path d="m14 12h-1.5-2-1.5v3.25c0 .414.336.75.75.75s.75-.336.75-.75v-1.75h2v1.75c0 .414.336.75.75.75s.75-.336.75-.75z"/><path d="m17.5 14.5v-1.75h1.13c.48 0 .87.391.87.88 0 .479-.39.87-.87.87zm2.85-2.5h-4.35v3.25c0 .414.336.75.75.75h1.88c1.307 0 2.37-1.063 2.37-2.38 0-.628-.25-1.196-.65-1.62z"/></g></svg>